<?xml version="1.0" encoding="utf-8"?>
<!-- Generator: Adobe Illustrator 24.0.1, SVG Export Plug-In . SVG Version: 6.00 Build 0)  -->
<svg version="1.1" xmlns="http://www.w3.org/2000/svg" xmlns:xlink="http://www.w3.org/1999/xlink" x="0px" y="0px"
	 viewBox="0 0 1200 195" style="enable-background:new 0 0 1200 195;" xml:space="preserve">
<style type="text/css">
	.st0{display:none;}
	.st1{display:inline;fill:#1C2A4B;}
	.st2{fill:#FFFFFF;}
	.st3{fill:#1C2A4B;}
</style>
<g id="BG" class="st0">
</g>
<g id="Layer_1">
	<g>
		<path class="st3" d="M98.6,157.5c-36.4,0-61.4-25.3-61.4-59.7v-0.2c0-33,25.9-60.1,61.2-60.1c21,0,33.6,5.6,45.8,16L128,73
			c-9.1-7.4-17-11.8-30.6-11.8c-18.7,0-33.6,16.5-33.6,36.2v0.2c0.2,21.1,14.9,36.7,35.5,36.7c9.3,0,17.7-2.3,24.3-7v-16.5H97.7
			V88.8h50.7v50.4C136.4,149.1,119.8,157.5,98.6,157.5"/>
		<path class="st3" d="M224,37.5c-34.8,0-60.1,27.2-60.1,60.1v0.2c0,33,25.1,59.7,59.9,59.7s60.1-26.9,60.1-60.1v-0.2
			C283.9,64.2,258.8,37.5,224,37.5z M257.9,97.6c0,20-13.8,36.2-33.9,36.2c-19.9,0-34.1-16.5-34.1-36.4v-0.2
			c0-20,13.8-36.2,33.9-36.2c19.9,0,34.1,16.5,34.1,36.4V97.6z"/>
		<path class="st3" d="M356.4,157.5c-32.7,0-57-26.5-57-59.9c0-33.2,24.1-60.1,57.5-60.1c20.7,0,32.9,7.4,44.3,18.3l-8.9,9.5
			c-9.5-9.3-20.2-16-35.7-16c-25.2,0-44.1,20.7-44.1,47.8c0,26.9,19.1,48,44.1,48c15.7,0,25.9-6,36.6-16.7l8.4,8.4
			C390.1,149.4,377.1,157.5,356.4,157.5"/>
		<path class="st3" d="M474.3,40h-12l-51.8,115.6h13.2l13.4-30.3h61.8l13.4,30.3h13.8L474.3,40z M442.3,113.6l25.9-58.5l25.9,58.5
			H442.3z"/>
		<path class="st3" d="M603.8,108.2c17.8-3.2,30.7-14.3,30.7-33.7c0-20.8-16-34.4-40.8-34.4h-48.5v115.6h12.6v-44.8H590l32.7,44.8
			v-0.2h15.8L603.8,108.2z M558,98.9V52h34.7c18,0,28.9,8.6,29.1,22.9c0,15-12.2,24-29.1,24H558z"/>
		<path class="st3" d="M697.7,40h-40.4v115.6h40.4c36.5,0,61.6-25.4,61.8-58C759.5,65,734.2,40,697.7,40z M697.7,143.5h-27.2V52
			h27.2c29.3,0,48.1,20.1,48.1,46C745.8,123.7,727,143.5,697.7,143.5z"/>
		<polygon class="st3" points="780,40 793.3,40 793.3,143.3 860,143.3 860,155.6 780,155.6 		"/>
		<polygon class="st3" points="957.7,52 890.9,52 890.9,91.4 950.5,91.4 950.5,103.2 890.9,103.2 890.9,143.6 958.4,143.6 
			958.4,155.6 878.4,155.6 878.4,40 957.7,40 		"/>
		<path class="st3" d="M1023.9,91.2c25,5.6,36.7,15.2,36.7,33.2c0,20.1-16,33.2-38.5,33.2c-17.8,0-32.4-6.1-45.9-18.7l7.9-9.6
			c11.7,11,23,16.6,38.5,16.6c15.1,0,25-8.2,25-20.1c0-11-5.6-17.3-29.3-22.4c-25.9-5.8-37.8-14.5-37.8-33.9c0-18.7,15.5-32,36.9-32
			c16.4,0,28.1,4.9,39.6,14.2l-7.4,10.3c-10.4-8.9-20.9-12.6-32.4-12.6c-14.6,0-23.9,8.4-23.9,18.9
			C993.3,79.5,998.9,85.8,1023.9,91.2"/>
		<path class="st3" d="M1126.1,91.2c25,5.6,36.7,15.2,36.7,33.2c0,20.1-16,33.2-38.5,33.2c-17.8,0-32.4-6.1-45.9-18.7l7.9-9.6
			c11.7,11,23,16.6,38.5,16.6c15.1,0,25-8.2,25-20.1c0-11-5.6-17.3-29.3-22.4c-25.9-5.8-37.8-14.5-37.8-33.9c0-18.7,15.5-32,36.9-32
			c16.4,0,28.1,4.9,39.6,14.2l-7.4,10.3c-10.4-8.9-20.9-12.6-32.4-12.6c-14.6,0-23.9,8.4-23.9,18.9
			C1095.5,79.5,1101.3,85.8,1126.1,91.2"/>
	</g>
</g>
</svg>
