<?xml version="1.0" encoding="UTF-8"?>
<!DOCTYPE svg PUBLIC "-//W3C//DTD SVG 1.1//EN" "http://www.w3.org/Graphics/SVG/1.1/DTD/svg11.dtd">
<!-- Creator: CorelDRAW X7 -->
<svg xmlns="http://www.w3.org/2000/svg" xml:space="preserve" width="2.04724in" height="2.04724in" version="1.1" style="shape-rendering:geometricPrecision; text-rendering:geometricPrecision; image-rendering:optimizeQuality; fill-rule:evenodd; clip-rule:evenodd"
viewBox="0 0 2047 2047"
 xmlns:xlink="http://www.w3.org/1999/xlink">
 <defs>
  <style type="text/css">
   <![CDATA[
    .str0 {stroke:#373435;stroke-width:29.5276}
    .str1 {stroke:#373435;stroke-width:19.685}
    .fil1 {fill:none}
    .fil0 {fill:#373435}
   ]]>
  </style>
 </defs>
 <g id="Layer_x0020_1">
  <metadata id="CorelCorpID_0Corel-Layer"/>
  <path class="fil0" d="M1034 1708c88,0 159,71 159,158 0,88 -71,159 -159,159 -88,0 -159,-71 -159,-159 0,-87 71,-158 159,-158zm-63 183l28 -3c2,9 5,16 10,20 5,5 12,7 20,7 9,0 16,-2 21,-6 4,-4 6,-8 6,-13 0,-4 -1,-6 -2,-9 -2,-2 -6,-4 -11,-6 -3,-1 -10,-3 -22,-6 -15,-4 -25,-8 -32,-14 -8,-7 -12,-17 -12,-28 0,-7 2,-14 6,-20 4,-6 10,-11 17,-14 8,-3 17,-5 27,-5 18,0 31,4 40,12 9,8 13,18 14,31l-29 1c-1,-7 -3,-13 -7,-16 -4,-3 -10,-4 -18,-4 -8,0 -14,1 -19,5 -3,2 -4,5 -4,8 0,4 1,6 4,9 3,3 12,6 26,9 13,3 23,7 30,10 6,4 11,8 15,14 4,6 6,14 6,22 0,8 -3,16 -7,23 -4,7 -11,12 -19,15 -8,4 -18,5 -30,5 -18,0 -31,-4 -41,-12 -9,-8 -15,-20 -17,-35zm899 -1017c88,0 159,72 159,159 0,88 -71,159 -159,159 -88,0 -159,-71 -159,-159 0,-87 71,-159 159,-159zm-55 229l0 -139 103 0 0 23 -75 0 0 31 70 0 0 24 -70 0 0 37 78 0 0 24 -106 0zm-781 -1089c88,0 159,71 159,158 0,88 -71,159 -159,159 -88,0 -159,-71 -159,-159 0,-87 71,-158 159,-158zm-55 228l0 -139 27 0 57 93 0 -93 27 0 0 139 -29 0 -56 -92 0 92 -26 0zm-797 632c87,0 158,72 158,159 0,88 -71,159 -158,159 -88,0 -159,-71 -159,-159 0,-87 71,-159 159,-159zm-59 229l-33 -139 29 0 21 95 25 -95 34 0 24 97 21 -97 29 0 -34 139 -30 0 -27 -104 -28 104 -31 0z"/>
  <path class="fil1 str0" d="M610 1649l-194 0 0 -1240 1228 0 0 1240 -698 0m-156 159l0 -338m-102 93l102 -102 103 100"/>
  <path class="fil1 str1" d="M1363 1019c0,187 -151,338 -337,338 -186,0 -337,-151 -337,-338 0,-186 151,-337 337,-337 143,0 265,89 314,215m7 -190l0 187 -185 0"/>
 </g>
</svg>
